<svg xmlns="http://www.w3.org/2000/svg" xmlns:xlink="http://www.w3.org/1999/xlink" width="21.119" height="21.119" viewBox="0 0 21.119 21.119"><defs><style>.a{fill:none;}.b{fill:#b1b1b1;}.c{clip-path:url(#a);}</style><clipPath id="a"><rect class="a" width="16" height="8"/></clipPath></defs><path class="b" d="M18.644,1.65h-.99V0H16V1.65H5.115V0H3.465V1.65h-.99A2.478,2.478,0,0,0,0,4.125V18.644a2.478,2.478,0,0,0,2.475,2.475H18.644a2.478,2.478,0,0,0,2.475-2.475V4.125A2.478,2.478,0,0,0,18.644,1.65Zm.825,16.994a.826.826,0,0,1-.825.825H2.475a.826.826,0,0,1-.825-.825V7.755H19.469Zm0-12.539H1.65V4.125A.826.826,0,0,1,2.475,3.3h.99V4.95h1.65V3.3H16V4.95h1.65V3.3h.99a.826.826,0,0,1,.825.825Z"/><g class="c" transform="translate(2.56 9.56)"><g transform="translate(-2.56 -9.56)"><g transform="translate(2.56 9.56)"><rect class="b" width="2" height="2"/></g><g transform="translate(2.56 12.56)"><g transform="translate(0 0)"><rect class="b" width="2" height="2"/></g></g><g transform="translate(2.56 16.56)"><g transform="translate(0 0)"><rect class="b" width="2" height="1"/></g></g></g><g transform="translate(0.44 -9.56)"><g transform="translate(2.56 9.56)"><rect class="b" width="2" height="2"/></g><g transform="translate(2.56 12.56)"><g transform="translate(0 0)"><rect class="b" width="2" height="2"/></g></g><g transform="translate(2.56 16.56)"><g transform="translate(0 0)"><rect class="b" width="2" height="1"/></g></g></g><g transform="translate(3.44 -9.56)"><g transform="translate(2.56 9.56)"><rect class="b" width="2" height="2"/></g><g transform="translate(2.56 12.56)"><g transform="translate(0 0)"><rect class="b" width="2" height="2"/></g></g><g transform="translate(2.56 16.56)"><g transform="translate(0 0)"><rect class="b" width="2" height="1"/></g></g></g><g transform="translate(6.44 -9.56)"><g transform="translate(2.56 9.56)"><rect class="b" width="2" height="2"/></g><g transform="translate(2.56 12.56)"><g transform="translate(0 0)"><rect class="b" width="2" height="2"/></g></g><g transform="translate(2.56 16.56)"><g transform="translate(0 0)"><rect class="b" width="2" height="1"/></g></g></g><g transform="translate(9.44 -9.56)"><g transform="translate(2.56 9.56)"><rect class="b" width="2" height="2"/></g><g transform="translate(2.56 12.56)"><g transform="translate(0 0)"><rect class="b" width="2" height="2"/></g></g><g transform="translate(2.56 16.56)"><g transform="translate(0 0)"><rect class="b" width="2" height="1"/></g></g></g><g transform="translate(12.44 -9.56)"><g transform="translate(2.56 9.56)"><rect class="b" width="2" height="2"/></g><g transform="translate(2.56 12.56)"><g transform="translate(0 0)"><rect class="b" width="2" height="2"/></g></g><g transform="translate(2.56 16.56)"><g transform="translate(0 0)"><rect class="b" width="2" height="1"/></g></g></g></g></svg>