<svg xmlns="http://www.w3.org/2000/svg" width="46.088" height="46.089" viewBox="0 0 46.088 46.089"><defs><style>.a{fill:#fbfbfb;}</style></defs><g transform="translate(-0.002)"><g transform="translate(0.002 0.94)"><path class="a" d="M44.34,45.564l-9.031-9.031a2.768,2.768,0,0,0-3.91,0l-2.348,2.348a2.766,2.766,0,0,0-.7,2.722l-.886.886h0c-.629.63-4.548-.337-9.285-5.074s-5.7-8.654-5.074-9.285h0l.887-.887a2.767,2.767,0,0,0,2.722-.7L19.064,24.2a2.768,2.768,0,0,0,0-3.91l-9.031-9.031a2.765,2.765,0,0,0-3.91,0L3.775,13.605a2.766,2.766,0,0,0-.7,2.722s-.751.758-.788.806C-.212,19.91-.68,24.282.976,29.51a39.393,39.393,0,0,0,9.845,15.266,39.4,39.4,0,0,0,15.266,9.845,19.106,19.106,0,0,0,5.726.974,9.522,9.522,0,0,0,6.963-2.58l.493-.493a2.775,2.775,0,0,0,.768.109,2.747,2.747,0,0,0,1.955-.81l2.349-2.349A2.768,2.768,0,0,0,44.34,45.564ZM8.078,13.211l9.031,9.031-2.347,2.35h0l-.034-.034-4.482-4.482L5.73,15.56ZM36.821,51.06h0c-1.989,1.989-5.5,2.317-9.9.924a36.61,36.61,0,0,1-14.147-9.164A36.608,36.608,0,0,1,3.612,28.674c-1.393-4.394-1.064-7.91.925-9.9h0l.249-.249,7.008,7.008-.643.643v0c-2.663,2.666.537,8.655,5.075,13.193,3.4,3.4,7.606,6.044,10.627,6.044a3.49,3.49,0,0,0,2.568-.97h0l.642-.642,7.008,7.008Zm3.216-1.193-9.031-9.031,2.348-2.348,9.031,9.031S40.038,49.868,40.037,49.867Z" transform="translate(-0.002 -10.447)"/></g><g transform="translate(23.777 7.012)"><path class="a" d="M275.343,81.968a13.828,13.828,0,0,0-9.843-4.077,1.382,1.382,0,0,0,0,2.765,11.155,11.155,0,0,1,11.155,11.155,1.382,1.382,0,0,0,2.765,0A13.829,13.829,0,0,0,275.343,81.968Z" transform="translate(-264.118 -77.891)"/></g><g transform="translate(23.776)"><path class="a" d="M280.3,6.131A20.8,20.8,0,0,0,265.494,0a1.382,1.382,0,1,0,0,2.765,18.167,18.167,0,0,1,18.167,18.167,1.382,1.382,0,0,0,2.765,0A20.794,20.794,0,0,0,280.3,6.131Z" transform="translate(-264.112)"/></g><g transform="translate(23.777 14.023)"><path class="a" d="M270.388,157.806a6.771,6.771,0,0,0-4.884-2.023h0a1.382,1.382,0,1,0,0,2.765h0a4.009,4.009,0,0,1,2.929,1.214,4.061,4.061,0,0,1,1.213,2.93,1.382,1.382,0,0,0,1.382,1.382h0a1.382,1.382,0,0,0,1.382-1.382A6.772,6.772,0,0,0,270.388,157.806Z" transform="translate(-264.121 -155.783)"/></g></g></svg>